PathFileType	4	(X/Y/Z)	7_coords_data.trc
DataRate	CameraRate	NumFrames	NumMarkers	Units	OrigDataRate	OrigDataStartFrame	OrigNumFrames
30.0	30.0	5	21	m	30.0	10	68
Frame#	Time	THUMB_TIP	THUMB_IP	THUMB_MCP	THUMB_CMC	INDEX_TIP	INDEX_DIP	INDEX_PIP	INDEX_MCP	MIDDLE_TIP	MIDDLE_DIP	MIDDLE_PIP	MIDDLE_MCP	RING_TIP	RING_DIP	RING_PIP	RING_MCP	PINKY_TIP	PINKY_DIP	PINKY_PIP	PINKY_MCP	WRIST
X1	Y1	Z1	X2	Y2	Z2	X3	Y3	Z3	X4	Y4	Z4	X5	Y5	Z5	X6	Y6	Z6	X7	Y7	Z7	X8	Y8	Z8	X9	Y9	Z9	X10	Y10	Z10	X11	Y11	Z11	X12	Y12	Z12	X13	Y13	Z13	X14	Y14	Z14	X15	Y15	Z15	X16	Y16	Z16	X17	Y17	Z17	X18	Y18	Z18	X19	Y19	Z19	X20	Y20	Z20	X21	Y21	Z21
8	0.2999999999999987	0.5489030014172339	-0.01376779957991181	-0.1279170191681616	0.5261754821691124	-0.0111927784725675	-0.12571948984571832	0.49757765618454	-0.007764199276566575	-0.11391994775066813	0.47303458092605216	-0.015842687973438574	-0.07755697926306096	0.5634209420552239	0.04055952526057027	-0.16143439976694754	0.5500755216879851	0.0397570872323425	-0.14921736868601213	0.5316182996349953	0.03689292237594033	-0.1323906831311568	0.5045973409518006	0.03255198708190543	-0.09976155248668367	0.5120660744535268	-0.009608198369583931	-0.10808446027896557	0.5273278167900567	-0.004928330117182411	-0.11663887750011703	0.5463344189216766	0.01684748041644557	-0.11290086987387404	0.5189627512824716	0.02867198440710661	-0.07962744448628059	0.5211443107452218	-0.019233916884783042	-0.10266979668594706	0.5375293810344924	-0.012278963360259021	-0.10552603426139007	0.5543576205235995	0.003217216560182923	-0.09568435033176925	0.5305765300723432	0.016458658268012738	-0.06578711312751712	0.6039308786526347	0.017279116813081585	-0.058909173005119414	0.5875446886065439	0.012330146319330382	-0.05893077914707448	0.5672530820841712	0.00706403994217264	-0.06008440272765267	0.5325093599305111	-0.002420276813199007	-0.06203503277792893	0.4622830810018609	-0.023011742144276925	-0.051989820119430985
9	0.33333333333333187	0.5490767836737531	-0.01346600533533504	-0.12772230181829122	0.526342216399144	-0.010935114126176315	-0.12554651678210957	0.49772276661266185	-0.007546336989649238	-0.11378797591013143	0.47310938973523187	-0.01577495921845773	-0.07750628004423851	0.5633711895346077	0.041488214084030695	-0.1612450875678146	0.549984323647586	0.04017067899198146	-0.1491184259083095	0.5315219975529386	0.03674858757375321	-0.13240191794461711	0.5045924003606194	0.03263619351811997	-0.09966782097844692	0.5122457465620451	-0.009481430482007225	-0.10790849533107191	0.5275034697919646	-0.00474523853232367	-0.11643905027520798	0.5464477006002332	0.017077338844155854	-0.11265741230593962	0.5189356948620228	0.028790542897197846	-0.0794604499136892	0.521309696316385	-0.01909952947321958	-0.10254206426221263	0.5376655708784048	-0.012034616283238542	-0.10529385802801461	0.5544682965806839	0.003430306292486973	-0.09535984787597698	0.5305301655850976	0.016616071723469905	-0.06556350064284716	0.6039349794097173	0.017339556007107015	-0.05836695596690786	0.5875361334798168	0.012433130599392994	-0.05843653962823875	0.5672407841433655	0.007202869270750201	-0.05968360848981616	0.5325016344127175	-0.0022685370077862865	-0.061773438650023854	0.4622830810018609	-0.023011742144276925	-0.051989820119430985
10	0.3666666666666651	0.5492269982164033	-0.01313460866201166	-0.1275483977171021	0.5264794070271378	-0.010677743559858954	-0.12542450766442112	0.49785424511390175	-0.007353212454857649	-0.11366153191961495	0.4731550662453583	-0.01569612406210108	-0.07746434433365168	0.5632523549195003	0.04235165267002261	-0.16106812009849977	0.5498534366278344	0.04063603238576863	-0.14900471943146068	0.531407735113621	0.03676432342562597	-0.13236813930282545	0.5045570580437289	0.03275853992280675	-0.0995560846061608	0.512401405867363	-0.009249996857130238	-0.10774673378988722	0.5276502255450435	-0.004491982306371378	-0.11628106422480441	0.5465260809755186	0.01737893274420499	-0.1124372761689568	0.5188873562373164	0.028933320934205642	-0.07928995456674182	0.5213816287564857	-0.0188492545913449	-0.10242287725845997	0.5377706936074286	-0.01183659444762919	-0.10511009720113948	0.5545168912971012	0.0036492457255764554	-0.09511341794909098	0.5304681059777345	0.016783756449566534	-0.0653836115806598	0.6038769744822692	0.017577581260764807	-0.05785742943989397	0.5874791427141071	0.012669238781883752	-0.0579963085710298	0.5671936447989994	0.007427597441594602	-0.05935122162947079	0.5324752446670362	-0.0020886334480496593	-0.06157776445005267	0.4622830810018609	-0.023011742144276925	-0.051989820119430985
11	0.39999999999999825	0.549340716973393	-0.012873121009814636	-0.1273704009709659	0.5265847625282174	-0.01044174878257298	-0.125307643985354	0.4979446786258901	-0.007179333737173277	-0.113563613921564	0.4731881292518767	-0.015622151645702353	-0.07742883719808802	0.5631369438115923	0.04311323014952928	-0.16090691030346793	0.5497370067829259	0.04113534114816497	-0.14888486211166402	0.531315629073257	0.03695165771125253	-0.13229693068012566	0.5045062394694939	0.03287935820184329	-0.09945931353485601	0.5125508292651864	-0.009055430519933627	-0.10766622445707011	0.5277852362541742	-0.004241410465720019	-0.11619488523186405	0.546586793360063	0.017677881620463465	-0.1122635197140606	0.5188328751416077	0.02906369817891974	-0.07915413847821623	0.5214164925671484	-0.0186003634354881	-0.10234150678265319	0.5378153533398566	-0.011601118892079931	-0.10500382554247606	0.5545476082438683	0.0038539771966885628	-0.09493647088923593	0.5304086143570399	0.016928937696457425	-0.06525355971022331	0.6037612408515878	0.017974748271785135	-0.057408633235473266	0.5873787889761574	0.013018073743356617	-0.057624615106080745	0.5671249121498809	0.007687824380242958	-0.05910141374944802	0.5324480809457731	-0.00194634887701306	-0.06146436408557107	0.4622830810018609	-0.023011742144276925	-0.051989820119430985
12	0.43333333333333146	0.5494231921452477	-0.012609797416204716	-0.1272174132005442	0.5266611095947678	-0.010194361815393349	-0.12520414003888097	0.4979918592709913	-0.007036247926461403	-0.11350284085728674	0.47322086705904043	-0.015566005810238814	-0.07739839272025517	0.5630258377638775	0.043767101528732644	-0.16073820530955318	0.5496364943381717	0.04166817796511224	-0.14872487927124933	0.5312396231767795	0.03731854596546602	-0.13215244233702655	0.5044366346399953	0.033035973187623746	-0.09933635680112665	0.5126234580739107	-0.008847715572329995	-0.10762892599125781	0.5278622201015091	-0.003989748445418884	-0.11612482425218812	0.5466059481365539	0.017968474180485416	-0.11213500364726114	0.518768075951322	0.029192779679002134	-0.07904095948105719	0.5214150295701281	-0.01837743136130854	-0.10222760122411823	0.5378255757502419	-0.0114059855250227	-0.10489085431424822	0.554530251374282	0.004069459673006426	-0.09480897020370604	0.530327490642607	0.017098541717378013	-0.06515782810013243	0.6036058756392961	0.01849746309532585	-0.05708795406603162	0.5872473707223773	0.013465025680967413	-0.05735978223548954	0.5670308246409173	0.00802018642933755	-0.05892726718282157	0.5324147883533283	-0.001804613335238292	-0.061394409724776305	0.4622830810018609	-0.023011742144276925	-0.051989820119430985
